<?xml version="1.0" encoding="UTF-8" standalone="no"?>
<!-- Created with Inkscape (http://www.inkscape.org/) -->
<svg
   xmlns:svg="http://www.w3.org/2000/svg"
   xmlns="http://www.w3.org/2000/svg"
   version="1.0"
   width="744.09448"
   height="1052.3622"
   id="svg2">
  <defs
     id="defs4" />
  <g
     id="layer1">
    <path
       d="M 146.60771,67.6136 C 146.88648,73.567369 145.90353,80.194061 147.27715,85.688523 C 148.06376,88.834953 147.27715,93.144908 147.27715,96.399589 C 147.27715,98.642856 146.94904,100.38979 146.60771,101.75512"
       style="opacity:1;color:#000000;fill:none;fill-opacity:0.75;fill-rule:evenodd;stroke:#000000;stroke-width:1px;stroke-linecap:butt;stroke-linejoin:miter;marker:none;marker-start:none;marker-mid:none;marker-end:none;stroke-miterlimit:4;stroke-dasharray:none;stroke-dashoffset:0;stroke-opacity:1;visibility:visible;display:inline;overflow:visible"
       id="path2214" />
    <path
       d="M 147.94659,105.77177 C 147.94659,106.41733 156.87095,111.12616 158.65766,112.46619 C 160.85283,114.11257 161.71317,116.19114 163.34375,117.82172 C 164.75805,119.23602 166.34034,119.82369 168.02984,120.49949"
       style="opacity:1;color:#000000;fill:none;fill-opacity:0.75;fill-rule:evenodd;stroke:#000000;stroke-width:1px;stroke-linecap:butt;stroke-linejoin:miter;marker:none;marker-start:none;marker-mid:none;marker-end:none;stroke-miterlimit:4;stroke-dasharray:none;stroke-dashoffset:0;stroke-opacity:1;visibility:visible;display:inline;overflow:visible"
       id="path2216" />
    <path
       d="M 145.93827,59.580301 C 147.72827,61.370304 141.49566,65.377045 148.61603,63.596951 C 150.17713,63.206678 147.51616,59.895879 145.93827,59.580301 z "
       style="opacity:1;color:#000000;fill:none;fill-opacity:0.75;fill-rule:evenodd;stroke:#000000;stroke-width:1px;stroke-linecap:butt;stroke-linejoin:miter;marker:none;marker-start:none;marker-mid:none;marker-end:none;stroke-miterlimit:4;stroke-dasharray:none;stroke-dashoffset:0;stroke-opacity:1;visibility:visible;display:inline;overflow:visible"
       id="path2220" />
    <path
       d="M 145.93827,102.42456 C 147.72344,101.97827 145.43703,107.7801 147.27715,107.7801 C 151.09653,107.7801 152.12757,101.1867 145.93827,102.42456 z "
       style="opacity:1;color:#000000;fill:none;fill-opacity:0.75;fill-rule:evenodd;stroke:#000000;stroke-width:1px;stroke-linecap:butt;stroke-linejoin:miter;marker:none;marker-start:none;marker-mid:none;marker-end:none;stroke-miterlimit:4;stroke-dasharray:none;stroke-dashoffset:0;stroke-opacity:1;visibility:visible;display:inline;overflow:visible"
       id="path2222" />
    <path
       d="M 172.04649,119.1606 C 174.24423,119.1606 168.83569,123.05345 169.36872,125.18558 C 170.00669,127.73743 175.3937,124.21253 175.3937,121.16893 C 175.3937,118.69221 175.83132,119.91757 172.04649,119.1606 z "
       style="opacity:1;color:#000000;fill:none;fill-opacity:0.75;fill-rule:evenodd;stroke:#000000;stroke-width:1px;stroke-linecap:butt;stroke-linejoin:miter;marker:none;marker-start:none;marker-mid:none;marker-end:none;stroke-miterlimit:4;stroke-dasharray:none;stroke-dashoffset:0;stroke-opacity:1;visibility:visible;display:inline;overflow:visible"
       id="path2224" />
    <path
       d="M 192.12974,88.36629 C 187.66679,88.36629 201.05562,88.36629 205.51857,88.36629 C 209.9164,88.36629 269.53089,90.813177 246.35451,85.019082 C 241.63829,83.840027 233.84721,84.34964 228.94902,84.34964"
       style="opacity:1;color:#000000;fill:none;fill-opacity:0.75;fill-rule:evenodd;stroke:#000000;stroke-width:1px;stroke-linecap:butt;stroke-linejoin:miter;marker:none;marker-start:none;marker-mid:none;marker-end:none;stroke-miterlimit:4;stroke-dasharray:none;stroke-dashoffset:0;stroke-opacity:1;visibility:visible;display:inline;overflow:visible"
       id="path2228" />
    <path
       d="M 249.70171,88.36629 C 249.5997,88.340787 237.53919,91.97417 234.30456,93.052381"
       style="opacity:1;color:#000000;fill:none;fill-opacity:0.75;fill-rule:evenodd;stroke:#000000;stroke-width:1px;stroke-linecap:butt;stroke-linejoin:miter;marker:none;marker-start:none;marker-mid:none;marker-end:none;stroke-miterlimit:4;stroke-dasharray:none;stroke-dashoffset:0;stroke-opacity:1;visibility:visible;display:inline;overflow:visible"
       id="path2230" />
    <path
       d="M 306.60425,60.919184 C 305.78093,60.713355 306.38697,68.500321 311.29034,63.596951 C 312.56248,62.324816 308.14694,61.844798 306.60425,60.919184 z "
       style="opacity:1;color:#000000;fill:none;fill-opacity:0.75;fill-rule:evenodd;stroke:#000000;stroke-width:1px;stroke-linecap:butt;stroke-linejoin:miter;marker:none;marker-start:none;marker-mid:none;marker-end:none;stroke-miterlimit:4;stroke-dasharray:none;stroke-dashoffset:0;stroke-opacity:1;visibility:visible;display:inline;overflow:visible"
       id="path2232" />
    <path
       d="M 309.28202,68.283042 C 309.74323,67.821832 309.28202,84.281128 309.28202,98.407914 C 309.28202,98.854208 309.28202,99.300502 309.28202,99.746797 C 309.28202,104.22055 304.08254,108.9126 311.29034,107.11065 C 312.55265,106.79508 310.20208,104.68351 309.28202,103.76345"
       style="opacity:1;color:#000000;fill:none;fill-opacity:0.75;fill-rule:evenodd;stroke:#000000;stroke-width:1px;stroke-linecap:butt;stroke-linejoin:miter;marker:none;marker-start:none;marker-mid:none;marker-end:none;stroke-miterlimit:4;stroke-dasharray:none;stroke-dashoffset:0;stroke-opacity:1;visibility:visible;display:inline;overflow:visible"
       id="path2234" />
    <path
       d="M 305.26537,109.11898 C 305.61284,109.03211 292.25431,115.28979 281.83491,120.49949 C 280.39565,121.21911 278.95609,122.03942 277.81826,123.17725"
       style="opacity:1;color:#000000;fill:none;fill-opacity:0.75;fill-rule:evenodd;stroke:#000000;stroke-width:1px;stroke-linecap:butt;stroke-linejoin:miter;marker:none;marker-start:none;marker-mid:none;marker-end:none;stroke-miterlimit:4;stroke-dasharray:none;stroke-dashoffset:0;stroke-opacity:1;visibility:visible;display:inline;overflow:visible"
       id="path2236" />
    <path
       d="M 270.4544,123.17725 C 266.33994,125.23449 272.13493,132.52174 273.80161,125.85502 C 274.4719,123.17386 273.01743,123.68986 270.4544,123.17725 z "
       style="opacity:1;color:#000000;fill:none;fill-opacity:0.75;fill-rule:evenodd;stroke:#000000;stroke-width:1px;stroke-linecap:butt;stroke-linejoin:miter;marker:none;marker-start:none;marker-mid:none;marker-end:none;stroke-miterlimit:4;stroke-dasharray:none;stroke-dashoffset:0;stroke-opacity:1;visibility:visible;display:inline;overflow:visible"
       id="path2238" />
    <path
       d="M 316.64587,113.80507 C 316.98229,112.45942 324.30865,118.76783 332.71247,121.16893"
       style="opacity:1;color:#000000;fill:none;fill-opacity:0.75;fill-rule:evenodd;stroke:#000000;stroke-width:1px;stroke-linecap:butt;stroke-linejoin:miter;marker:none;marker-start:none;marker-mid:none;marker-end:none;stroke-miterlimit:4;stroke-dasharray:none;stroke-dashoffset:0;stroke-opacity:1;visibility:visible;display:inline;overflow:visible"
       id="path2240" />
    <path
       d="M 338.068,125.18558 C 339.12146,125.48656 334.24529,133.40815 340.74577,128.53279 C 341.88884,127.67548 338.96059,126.30131 338.068,125.18558 z "
       style="opacity:1;color:#000000;fill:none;fill-opacity:0.75;fill-rule:evenodd;stroke:#000000;stroke-width:1px;stroke-linecap:butt;stroke-linejoin:miter;marker:none;marker-start:none;marker-mid:none;marker-end:none;stroke-miterlimit:4;stroke-dasharray:none;stroke-dashoffset:0;stroke-opacity:1;visibility:visible;display:inline;overflow:visible"
       id="path2242" />
    <path
       d="M 353.46516,91.044056 C 358.24625,87.458237 387.25015,92.382939 396.30942,92.382939 C 403.56933,92.382939 374.75248,77.333524 395.63998,85.688523 C 405.66091,89.696895 384.47774,101.68481 379.57338,105.77177 C 374.44831,110.04266 385.29126,104.73998 386.93724,103.094 C 389.12432,100.90693 391.65023,99.719895 393.63166,97.738472"
       style="opacity:1;color:#000000;fill:none;fill-opacity:0.75;fill-rule:evenodd;stroke:#000000;stroke-width:1px;stroke-linecap:butt;stroke-linejoin:miter;marker:none;marker-start:none;marker-mid:none;marker-end:none;stroke-miterlimit:4;stroke-dasharray:none;stroke-dashoffset:0;stroke-opacity:1;visibility:visible;display:inline;overflow:visible"
       id="path2246" />
    <path
       d="M 415.05379,111.1273 C 415.1341,111.04699 426.54136,107.08389 429.11206,106.44121 C 432.31122,105.64142 435.62334,104.18973 437.8148,103.094 C 440.87954,102.32782 458.02923,113.93625 460.57582,116.48284"
       style="opacity:1;color:#000000;fill:none;fill-opacity:0.75;fill-rule:evenodd;stroke:#000000;stroke-width:1px;stroke-linecap:butt;stroke-linejoin:miter;marker:none;marker-start:none;marker-mid:none;marker-end:none;stroke-miterlimit:4;stroke-dasharray:none;stroke-dashoffset:0;stroke-opacity:1;visibility:visible;display:inline;overflow:visible"
       id="path2248" />
    <path
       d="M 436.47592,101.08568 C 437.7383,100.77008 436.78267,84.154756 437.8148,78.994107 C 438.13012,77.417535 437.8148,75.284362 437.8148,73.638575"
       style="opacity:1;color:#000000;fill:none;fill-opacity:0.75;fill-rule:evenodd;stroke:#000000;stroke-width:1px;stroke-linecap:butt;stroke-linejoin:miter;marker:none;marker-start:none;marker-mid:none;marker-end:none;stroke-miterlimit:4;stroke-dasharray:none;stroke-dashoffset:0;stroke-opacity:1;visibility:visible;display:inline;overflow:visible"
       id="path2250" />
    <path
       d="M 481.99795,115.81339 C 482.44261,113.5901 499.80119,106.57705 504.08952,104.43289 C 505.49879,97.386542 516.41381,112.07108 521.495,117.15228"
       style="opacity:1;color:#000000;fill:none;fill-opacity:0.75;fill-rule:evenodd;stroke:#000000;stroke-width:1px;stroke-linecap:butt;stroke-linejoin:miter;marker:none;marker-start:none;marker-mid:none;marker-end:none;stroke-miterlimit:4;stroke-dasharray:none;stroke-dashoffset:0;stroke-opacity:1;visibility:visible;display:inline;overflow:visible"
       id="path2252" />
    <path
       d="M 503.42008,99.077355 C 504.36472,94.354129 504.08952,84.590804 504.08952,77.655224 C 504.08952,76.316341 504.08952,74.977458 504.08952,73.638575"
       style="opacity:1;color:#000000;fill:none;fill-opacity:0.75;fill-rule:evenodd;stroke:#000000;stroke-width:1px;stroke-linecap:butt;stroke-linejoin:miter;marker:none;marker-start:none;marker-mid:none;marker-end:none;stroke-miterlimit:4;stroke-dasharray:none;stroke-dashoffset:0;stroke-opacity:1;visibility:visible;display:inline;overflow:visible"
       id="path2254" />
    <path
       d="M 548.27266,118.49116 C 548.27266,114.64081 565.46869,108.65899 567.68647,106.44121 C 567.68647,101.30398 575.63606,113.23603 580.40586,115.14395 C 585.79095,117.29799 592.23691,122.68803 598.48078,125.18558"
       style="opacity:1;color:#000000;fill:none;fill-opacity:0.75;fill-rule:evenodd;stroke:#000000;stroke-width:1px;stroke-linecap:butt;stroke-linejoin:miter;marker:none;marker-start:none;marker-mid:none;marker-end:none;stroke-miterlimit:4;stroke-dasharray:none;stroke-dashoffset:0;stroke-opacity:1;visibility:visible;display:inline;overflow:visible"
       id="path2256" />
    <path
       d="M 567.68647,103.094 C 567.88511,103.17346 567.68647,94.720103 567.68647,85.688523 C 567.68647,80.997122 567.01703,76.321651 567.01703,71.63025"
       style="opacity:1;color:#000000;fill:none;fill-opacity:0.75;fill-rule:evenodd;stroke:#000000;stroke-width:1px;stroke-linecap:butt;stroke-linejoin:miter;marker:none;marker-start:none;marker-mid:none;marker-end:none;stroke-miterlimit:4;stroke-dasharray:none;stroke-dashoffset:0;stroke-opacity:1;visibility:visible;display:inline;overflow:visible"
       id="path2258" />
    <path
       d="M 606.51408,101.08568 C 606.51408,95.060706 618.56403,101.08568 624.58901,101.08568 C 626.59733,101.08568 628.60566,101.08568 630.61398,101.08568"
       style="opacity:1;color:#000000;fill:none;fill-opacity:0.75;fill-rule:evenodd;stroke:#000000;stroke-width:1px;stroke-linecap:butt;stroke-linejoin:miter;marker:none;marker-start:none;marker-mid:none;marker-end:none;stroke-miterlimit:4;stroke-dasharray:none;stroke-dashoffset:0;stroke-opacity:1;visibility:visible;display:inline;overflow:visible"
       id="path2260" />
    <path
       d="M 625.92789,95.730147 C 630.17719,95.730147 632.88352,99.371357 631.95286,103.094 C 631.75763,103.87493 625.36448,106.72292 624.58901,107.11065"
       style="opacity:1;color:#000000;fill:none;fill-opacity:0.75;fill-rule:evenodd;stroke:#000000;stroke-width:1px;stroke-linecap:butt;stroke-linejoin:miter;marker:none;marker-start:none;marker-mid:none;marker-end:none;stroke-miterlimit:4;stroke-dasharray:none;stroke-dashoffset:0;stroke-opacity:1;visibility:visible;display:inline;overflow:visible"
       id="path2262" />
    <path
       d="M 647.35002,86.357965 C 657.39164,79.663549 659.39997,78.994107 659.39997,78.994107 L 658.06109,64.266392 L 658.73053,80.332991 L 666.09438,85.688523"
       style="fill:none;fill-opacity:0.75;fill-rule:evenodd;stroke:#000000;stroke-width:1px;stroke-linecap:butt;stroke-linejoin:miter;stroke-opacity:1"
       id="path2266" />
    <path
       d="M 674.79713,87.027406 L 682.16098,81.002432 L 682.16098,81.002432 L 681.49154,62.927509 L 681.49154,79.663549 L 688.8554,85.688523"
       style="fill:none;fill-opacity:0.75;fill-rule:evenodd;stroke:#000000;stroke-width:1px;stroke-linecap:butt;stroke-linejoin:miter;stroke-opacity:1"
       id="path2268" />
    <path
       d="M 697.55814,87.027406 L 704.922,81.002432 L 704.922,65.605275 L 704.922,79.663549 L 713.62474,86.357965"
       style="fill:none;fill-opacity:0.75;fill-rule:evenodd;stroke:#000000;stroke-width:1px;stroke-linecap:butt;stroke-linejoin:miter;stroke-opacity:1"
       id="path2270" />
    <path
       d="M 645.67641,120.49949 C 655.71803,113.80507 657.72636,113.13563 657.72636,113.13563 L 656.38748,98.407913 L 657.05692,114.47451 L 664.42077,119.83005"
       style="fill:none;fill-opacity:0.75;fill-rule:evenodd;stroke:#000000;stroke-width:1px;stroke-linecap:butt;stroke-linejoin:miter;stroke-opacity:1"
       id="path2272" />
    <path
       d="M 673.12352,121.16893 L 680.48737,115.14396 L 680.48737,115.14396 L 679.81793,97.06903 L 679.81793,113.80507 L 687.18179,119.83005"
       style="fill:none;fill-opacity:0.75;fill-rule:evenodd;stroke:#000000;stroke-width:1px;stroke-linecap:butt;stroke-linejoin:miter;stroke-opacity:1"
       id="path2274" />
    <path
       d="M 695.88453,121.16893 L 703.24839,115.14396 L 703.24839,99.746798 L 703.24839,113.80507 L 711.95113,120.49949"
       style="fill:none;fill-opacity:0.75;fill-rule:evenodd;stroke:#000000;stroke-width:1px;stroke-linecap:butt;stroke-linejoin:miter;stroke-opacity:1"
       id="path2276" />
    <path
       d="M 406.35105,90.374614 L 408.35937,91.044056"
       style="opacity:1;color:#000000;fill:none;fill-opacity:0.75;fill-rule:evenodd;stroke:#000000;stroke-width:1px;stroke-linecap:butt;stroke-linejoin:miter;marker:none;marker-start:none;marker-mid:none;marker-end:none;stroke-miterlimit:4;stroke-dasharray:none;stroke-dashoffset:0;stroke-opacity:1;visibility:visible;display:inline;overflow:visible"
       id="path2278" />
    <path
       d="M 414.38435,91.044056 L 417.73155,91.044056"
       style="opacity:1;color:#000000;fill:none;fill-opacity:0.75;fill-rule:evenodd;stroke:#000000;stroke-width:1px;stroke-linecap:butt;stroke-linejoin:miter;marker:none;marker-start:none;marker-mid:none;marker-end:none;stroke-miterlimit:4;stroke-dasharray:none;stroke-dashoffset:0;stroke-opacity:1;visibility:visible;display:inline;overflow:visible"
       id="path2280" />
    <path
       d="M 423.08709,89.705173 L 427.10374,91.044056"
       style="opacity:1;color:#000000;fill:none;fill-opacity:0.75;fill-rule:evenodd;stroke:#000000;stroke-width:1px;stroke-linecap:butt;stroke-linejoin:miter;marker:none;marker-start:none;marker-mid:none;marker-end:none;stroke-miterlimit:4;stroke-dasharray:none;stroke-dashoffset:0;stroke-opacity:1;visibility:visible;display:inline;overflow:visible"
       id="path2282" />
    <path
       d="M 578.39754,95.730147 L 583.08363,95.730147"
       style="opacity:1;color:#000000;fill:none;fill-opacity:0.75;fill-rule:evenodd;stroke:#000000;stroke-width:1px;stroke-linecap:butt;stroke-linejoin:miter;marker:none;marker-start:none;marker-mid:none;marker-end:none;stroke-miterlimit:4;stroke-dasharray:none;stroke-dashoffset:0;stroke-opacity:1;visibility:visible;display:inline;overflow:visible"
       id="path2284" />
    <path
       d="M 587.10028,95.730147 L 590.44748,96.399589"
       style="opacity:1;color:#000000;fill:none;fill-opacity:0.75;fill-rule:evenodd;stroke:#000000;stroke-width:1px;stroke-linecap:butt;stroke-linejoin:miter;marker:none;marker-start:none;marker-mid:none;marker-end:none;stroke-miterlimit:4;stroke-dasharray:none;stroke-dashoffset:0;stroke-opacity:1;visibility:visible;display:inline;overflow:visible"
       id="path2286" />
    <path
       d="M 597.81134,95.060706 L 601.15855,95.730147"
       style="opacity:1;color:#000000;fill:none;fill-opacity:0.75;fill-rule:evenodd;stroke:#000000;stroke-width:1px;stroke-linecap:butt;stroke-linejoin:miter;marker:none;marker-start:none;marker-mid:none;marker-end:none;stroke-miterlimit:4;stroke-dasharray:none;stroke-dashoffset:0;stroke-opacity:1;visibility:visible;display:inline;overflow:visible"
       id="path2288" />
    <path
       d="M 496.05622,143.92994 C 494.46615,160.04693 490.3986,181.8923 487.35348,200.16304 C 485.00158,214.27444 480.68687,191.89235 479.98962,189.45197 C 479.66415,188.31282 481.19167,208.54621 490.70069,202.8408 C 493.50333,201.15922 497.63341,199.61839 500.07287,198.15471"
       style="opacity:1;color:#000000;fill:none;fill-opacity:0.75;fill-rule:evenodd;stroke:#000000;stroke-width:1px;stroke-linecap:butt;stroke-linejoin:miter;marker:none;marker-start:none;marker-mid:none;marker-end:none;stroke-miterlimit:4;stroke-dasharray:none;stroke-dashoffset:0;stroke-opacity:1;visibility:visible;display:inline;overflow:visible"
       id="path2292" />
    <path
       d="M 409.02881,266.43775 C 412.17085,264.55253 420.82495,259.67354 422.41764,251.71004 C 424.29216,242.33748 422.41764,230.58154 422.41764,220.91572 C 422.41764,216.45278 422.41764,229.84161 422.41764,234.30456 C 422.41764,240.10638 422.41764,245.90821 422.41764,251.71004 C 422.41764,254.04207 431.39326,258.54514 433.79815,261.75166 C 434.55592,262.76201 437.18774,264.47181 437.8148,265.09887"
       style="opacity:1;color:#000000;fill:none;fill-opacity:0.75;fill-rule:evenodd;stroke:#000000;stroke-width:1px;stroke-linecap:butt;stroke-linejoin:miter;marker:none;marker-start:none;marker-mid:none;marker-end:none;stroke-miterlimit:4;stroke-dasharray:none;stroke-dashoffset:0;stroke-opacity:1;visibility:visible;display:inline;overflow:visible"
       id="path2294" />
    <path
       d="M 453.8814,266.43775 C 454.90633,267.80433 467.55028,260.70483 470.61744,258.40445 C 475.30125,254.89159 472.62576,240.53367 472.62576,234.30456 C 472.62576,223.82358 471.28688,218.78247 471.28688,232.29623 C 471.28688,239.32493 470.61744,246.1373 470.61744,253.04892 C 470.61744,259.46542 473.10071,258.20996 479.98962,265.09887 C 482.81129,267.92054 483.46053,267.70205 485.34515,269.11552"
       style="opacity:1;color:#000000;fill:none;fill-opacity:0.75;fill-rule:evenodd;stroke:#000000;stroke-width:1px;stroke-linecap:butt;stroke-linejoin:miter;marker:none;marker-start:none;marker-mid:none;marker-end:none;stroke-miterlimit:4;stroke-dasharray:none;stroke-dashoffset:0;stroke-opacity:1;visibility:visible;display:inline;overflow:visible"
       id="path2296" />
    <path
       d="M 470.61744,263.75999 C 473.14699,266.28954 471.28688,270.89373 471.28688,274.47105 C 471.28688,276.47938 471.28688,278.4877 471.28688,280.49603"
       style="opacity:1;color:#000000;fill:none;fill-opacity:0.75;fill-rule:evenodd;stroke:#000000;stroke-width:1px;stroke-linecap:butt;stroke-linejoin:miter;marker:none;marker-start:none;marker-mid:none;marker-end:none;stroke-miterlimit:4;stroke-dasharray:none;stroke-dashoffset:0;stroke-opacity:1;visibility:visible;display:inline;overflow:visible"
       id="path2298" />
    <path
       d="M 471.28688,217.56852 C 471.28688,221.13887 471.28688,210.42781 471.28688,206.85745 C 471.28688,205.09101 470.61744,202.83952 470.61744,200.83248"
       style="opacity:1;color:#000000;fill:none;fill-opacity:0.75;fill-rule:evenodd;stroke:#000000;stroke-width:1px;stroke-linecap:butt;stroke-linejoin:miter;marker:none;marker-start:none;marker-mid:none;marker-end:none;stroke-miterlimit:4;stroke-dasharray:none;stroke-dashoffset:0;stroke-opacity:1;visibility:visible;display:inline;overflow:visible"
       id="path2300" />
    <path
       d="M 506.76729,267.77664 C 506.76729,266.55069 516.12821,259.74896 517.47835,259.0739 C 521.52909,257.04853 519.48668,253.80791 519.48668,249.03227 C 519.48668,245.46191 519.5175,240.87567 520.15612,238.32121 C 520.7417,235.97888 520.15612,229.17596 520.15612,228.94902 C 520.15612,225.14896 519.48668,236.52947 519.48668,240.32953 C 519.48668,243.67674 519.48668,247.02395 519.48668,250.37115 C 519.48668,255.51224 519.07297,256.524 522.83388,258.40445 C 525.05856,259.51679 528.49404,264.06462 530.19774,265.76831 C 531.66537,267.23594 533.06241,267.2941 534.21439,268.44608"
       style="opacity:1;color:#000000;fill:none;fill-opacity:0.75;fill-rule:evenodd;stroke:#000000;stroke-width:1px;stroke-linecap:butt;stroke-linejoin:miter;marker:none;marker-start:none;marker-mid:none;marker-end:none;stroke-miterlimit:4;stroke-dasharray:none;stroke-dashoffset:0;stroke-opacity:1;visibility:visible;display:inline;overflow:visible"
       id="path2302" />
    <path
       d="M 578.39754,257.06557 C 582.31873,260.98676 612.77693,257.06557 621.2418,257.06557 C 622.3417,257.06557 609.96215,253.60465 620.57236,255.72669 C 626.708,256.95382 622.55189,260.15076 617.89459,261.08222"
       style="opacity:1;color:#000000;fill:none;fill-opacity:0.75;fill-rule:evenodd;stroke:#000000;stroke-width:1px;stroke-linecap:butt;stroke-linejoin:miter;marker:none;marker-start:none;marker-mid:none;marker-end:none;stroke-miterlimit:4;stroke-dasharray:none;stroke-dashoffset:0;stroke-opacity:1;visibility:visible;display:inline;overflow:visible"
       id="path2304" />
    <path
       d="M 642.49657,247.35867 C 652.53819,240.66425 654.54652,239.99481 654.54652,239.99481 L 653.20764,225.26709 L 653.87708,241.33369 L 661.24093,246.68922"
       style="fill:none;fill-opacity:0.75;fill-rule:evenodd;stroke:#000000;stroke-width:1px;stroke-linecap:butt;stroke-linejoin:miter;stroke-opacity:1"
       id="path2307" />
    <path
       d="M 669.94368,248.02811 L 677.30753,242.00313 L 677.30753,242.00313 L 676.63809,223.92821 L 676.63809,240.66425 L 684.00195,246.68922"
       style="fill:none;fill-opacity:0.75;fill-rule:evenodd;stroke:#000000;stroke-width:1px;stroke-linecap:butt;stroke-linejoin:miter;stroke-opacity:1"
       id="path2309" />
    <path
       d="M 692.70469,248.02811 L 700.06855,242.00313 L 700.06855,226.60598 L 700.06855,240.66425 L 708.77129,247.35867"
       style="fill:none;fill-opacity:0.75;fill-rule:evenodd;stroke:#000000;stroke-width:1px;stroke-linecap:butt;stroke-linejoin:miter;stroke-opacity:1"
       id="path2311" />
    <path
       d="M 640.82296,281.50019 C 650.86458,274.80577 652.87291,274.13633 652.87291,274.13633 L 651.53403,259.40861 L 652.20347,275.47521 L 659.56732,280.83075"
       style="fill:none;fill-opacity:0.75;fill-rule:evenodd;stroke:#000000;stroke-width:1px;stroke-linecap:butt;stroke-linejoin:miter;stroke-opacity:1"
       id="path2313" />
    <path
       d="M 668.27007,282.16963 L 675.63392,276.14466 L 675.63392,276.14466 L 674.96448,258.06973 L 674.96448,274.80577 L 682.32834,280.83075"
       style="fill:none;fill-opacity:0.75;fill-rule:evenodd;stroke:#000000;stroke-width:1px;stroke-linecap:butt;stroke-linejoin:miter;stroke-opacity:1"
       id="path2315" />
    <path
       d="M 691.03108,282.16963 L 698.39494,276.14466 L 698.39494,260.7475 L 698.39494,274.80577 L 707.09768,281.50019"
       style="fill:none;fill-opacity:0.75;fill-rule:evenodd;stroke:#000000;stroke-width:1px;stroke-linecap:butt;stroke-linejoin:miter;stroke-opacity:1"
       id="path2317" />
    <path
       d="M 674.79713,251.71004 C 675.1177,251.37359 676.13601,249.26445 676.13601,245.68506"
       style="opacity:1;color:#000000;fill:none;fill-opacity:0.75;fill-rule:evenodd;stroke:#000000;stroke-width:1px;stroke-linecap:butt;stroke-linejoin:miter;marker:none;marker-start:none;marker-mid:none;marker-end:none;stroke-miterlimit:4;stroke-dasharray:none;stroke-dashoffset:0;stroke-opacity:1;visibility:visible;display:inline;overflow:visible"
       id="path2319" />
    <path
       d="M 676.80545,218.9074 C 676.80545,218.83427 676.80545,215.12917 676.80545,212.88243"
       style="opacity:1;color:#000000;fill:none;fill-opacity:0.75;fill-rule:evenodd;stroke:#000000;stroke-width:1px;stroke-linecap:butt;stroke-linejoin:miter;marker:none;marker-start:none;marker-mid:none;marker-end:none;stroke-miterlimit:4;stroke-dasharray:none;stroke-dashoffset:0;stroke-opacity:1;visibility:visible;display:inline;overflow:visible"
       id="path2321" />
    <path
       d="M 674.79713,281.83491 C 674.79713,282.17106 674.79713,286.76912 674.79713,289.19877"
       style="opacity:1;color:#000000;fill:none;fill-opacity:0.75;fill-rule:evenodd;stroke:#000000;stroke-width:1px;stroke-linecap:butt;stroke-linejoin:miter;marker:none;marker-start:none;marker-mid:none;marker-end:none;stroke-miterlimit:4;stroke-dasharray:none;stroke-dashoffset:0;stroke-opacity:1;visibility:visible;display:inline;overflow:visible"
       id="path2323" />
  </g>
</svg>
