<?xml version="1.0" encoding="UTF-8" standalone="no"?>
<!-- Created with Inkscape (http://www.inkscape.org/) -->
<svg
   xmlns:svg="http://www.w3.org/2000/svg"
   xmlns="http://www.w3.org/2000/svg"
   version="1.0"
   width="744.09448"
   height="1052.3622"
   id="svg2">
  <defs
     id="defs4" />
  <g
     id="layer1">
    <path
       d="M 87.027407,131.87999 C 87.027407,131.65685 87.027407,131.4337 87.027407,131.21055 C 87.027407,125.70615 100.30023,96.605011 103.09401,107.7801 C 105.21609,116.26843 103.76345,126.48774 103.76345,135.2272"
       style="opacity:1;color:#000000;fill:none;fill-opacity:0.75;fill-rule:evenodd;stroke:#000000;stroke-width:1px;stroke-linecap:butt;stroke-linejoin:miter;marker:none;marker-start:none;marker-mid:none;marker-end:none;stroke-miterlimit:4;stroke-dasharray:none;stroke-dashoffset:0;stroke-opacity:1;visibility:visible;display:inline;overflow:visible"
       id="path2325" />
    <path
       d="M 92.38294,123.17725 C 92.467419,123.51517 102.74395,123.17725 103.76345,123.17725"
       style="opacity:1;color:#000000;fill:none;fill-opacity:0.75;fill-rule:evenodd;stroke:#000000;stroke-width:1px;stroke-linecap:butt;stroke-linejoin:miter;marker:none;marker-start:none;marker-mid:none;marker-end:none;stroke-miterlimit:4;stroke-dasharray:none;stroke-dashoffset:0;stroke-opacity:1;visibility:visible;display:inline;overflow:visible"
       id="path2327" />
    <path
       d="M 130.54111,122.50781 C 131.89522,127.92425 141.80243,122.08231 147.27715,123.17725 C 151.46123,124.01407 174.11615,126.22041 164.01319,121.16893 C 160.90832,119.61649 168.71028,126.31048 171.37705,128.53279 C 174.25068,130.92748 164.29493,130.97276 160.66598,131.87999"
       style="opacity:1;color:#000000;fill:none;fill-opacity:0.75;fill-rule:evenodd;stroke:#000000;stroke-width:1px;stroke-linecap:butt;stroke-linejoin:miter;marker:none;marker-start:none;marker-mid:none;marker-end:none;stroke-miterlimit:4;stroke-dasharray:none;stroke-dashoffset:0;stroke-opacity:1;visibility:visible;display:inline;overflow:visible"
       id="path2329" />
    <path
       d="M 143.2605,101.75512 C 143.59094,102.03049 143.92994,105.0598 143.92994,107.7801"
       style="opacity:1;color:#000000;fill:none;fill-opacity:0.75;fill-rule:evenodd;stroke:#000000;stroke-width:1px;stroke-linecap:butt;stroke-linejoin:miter;marker:none;marker-start:none;marker-mid:none;marker-end:none;stroke-miterlimit:4;stroke-dasharray:none;stroke-dashoffset:0;stroke-opacity:1;visibility:visible;display:inline;overflow:visible"
       id="path2331" />
    <path
       d="M 139.24385,101.08568 C 140.32669,101.98804 146.48809,100.44614 149.28548,99.746797"
       style="opacity:1;color:#000000;fill:none;fill-opacity:0.75;fill-rule:evenodd;stroke:#000000;stroke-width:1px;stroke-linecap:butt;stroke-linejoin:miter;marker:none;marker-start:none;marker-mid:none;marker-end:none;stroke-miterlimit:4;stroke-dasharray:none;stroke-dashoffset:0;stroke-opacity:1;visibility:visible;display:inline;overflow:visible"
       id="path2333" />
    <path
       d="M 149.28548,107.11065 C 149.28548,107.11065 149.28548,107.11065 149.28548,107.11065 z "
       style="opacity:1;color:#000000;fill:none;fill-opacity:0.75;fill-rule:evenodd;stroke:#000000;stroke-width:1px;stroke-linecap:butt;stroke-linejoin:miter;marker:none;marker-start:none;marker-mid:none;marker-end:none;stroke-miterlimit:4;stroke-dasharray:none;stroke-dashoffset:0;stroke-opacity:1;visibility:visible;display:inline;overflow:visible"
       id="path2335" />
    <path
       d="M 147.27715,111.1273 C 148.17366,111.8744 152.21435,106.85954 153.30212,105.77177"
       style="opacity:1;color:#000000;fill:none;fill-opacity:0.75;fill-rule:evenodd;stroke:#000000;stroke-width:1px;stroke-linecap:butt;stroke-linejoin:miter;marker:none;marker-start:none;marker-mid:none;marker-end:none;stroke-miterlimit:4;stroke-dasharray:none;stroke-dashoffset:0;stroke-opacity:1;visibility:visible;display:inline;overflow:visible"
       id="path2337" />
    <path
       d="M 146.60771,104.43289 C 147.6543,105.30505 151.90947,108.39576 153.30212,109.78842"
       style="opacity:1;color:#000000;fill:none;fill-opacity:0.75;fill-rule:evenodd;stroke:#000000;stroke-width:1px;stroke-linecap:butt;stroke-linejoin:miter;marker:none;marker-start:none;marker-mid:none;marker-end:none;stroke-miterlimit:4;stroke-dasharray:none;stroke-dashoffset:0;stroke-opacity:1;visibility:visible;display:inline;overflow:visible"
       id="path2339" />
    <path
       d="M 196.81583,131.21055 L 196.81583,133.21888"
       style="opacity:1;color:#000000;fill:none;fill-opacity:0.75;fill-rule:evenodd;stroke:#000000;stroke-width:1px;stroke-linecap:butt;stroke-linejoin:miter;marker:none;marker-start:none;marker-mid:none;marker-end:none;stroke-miterlimit:4;stroke-dasharray:none;stroke-dashoffset:0;stroke-opacity:1;visibility:visible;display:inline;overflow:visible"
       id="path2341" />
    <path
       d="M 97.738472,119.1606 C 98.2732,119.60621 92.988286,126.55651 99.746797,123.17725 C 101.08568,122.50781 98.407914,120.49949 97.738472,119.1606 z "
       style="opacity:1;color:#000000;fill:none;fill-opacity:0.75;fill-rule:evenodd;stroke:#000000;stroke-width:1px;stroke-linecap:butt;stroke-linejoin:miter;marker:none;marker-start:none;marker-mid:none;marker-end:none;stroke-miterlimit:4;stroke-dasharray:none;stroke-dashoffset:0;stroke-opacity:1;visibility:visible;display:inline;overflow:visible"
       id="path2345" />
    <path
       d="M 214.89075,135.2272 C 214.89075,135.2272 214.89075,135.2272 214.89075,135.2272 z "
       style="opacity:1;color:#000000;fill:none;fill-opacity:0.75;fill-rule:evenodd;stroke:#000000;stroke-width:1px;stroke-linecap:butt;stroke-linejoin:miter;marker:none;marker-start:none;marker-mid:none;marker-end:none;stroke-miterlimit:4;stroke-dasharray:none;stroke-dashoffset:0;stroke-opacity:1;visibility:visible;display:inline;overflow:visible"
       id="path2347" />
    <path
       d="M 196.81583,130.54111 C 198.65595,129.62105 198.83659,134.72823 200.83248,135.2272 C 205.96315,136.50987 204.59936,131.63023 202.8408,129.87167 C 200.70966,127.74053 200.18812,128.51773 196.81583,130.54111 z "
       style="opacity:1;color:#000000;fill:none;fill-opacity:0.75;fill-rule:evenodd;stroke:#000000;stroke-width:1px;stroke-linecap:butt;stroke-linejoin:miter;marker:none;marker-start:none;marker-mid:none;marker-end:none;stroke-miterlimit:4;stroke-dasharray:none;stroke-dashoffset:0;stroke-opacity:1;visibility:visible;display:inline;overflow:visible"
       id="path2349" />
    <path
       d="M 238.32121,137.90497 C 236.99103,136.57479 237.9068,121.48768 238.99065,117.15228 C 240.27114,112.03033 245.07073,113.87854 247.02395,116.48284 C 248.64995,118.65084 247.69339,126.93407 247.69339,129.87167 C 247.69339,133.02974 249.03227,135.42785 249.03227,139.24385"
       style="opacity:1;color:#000000;fill:none;fill-opacity:0.75;fill-rule:evenodd;stroke:#000000;stroke-width:1px;stroke-linecap:butt;stroke-linejoin:miter;marker:none;marker-start:none;marker-mid:none;marker-end:none;stroke-miterlimit:4;stroke-dasharray:none;stroke-dashoffset:0;stroke-opacity:1;visibility:visible;display:inline;overflow:visible"
       id="path2351" />
    <path
       d="M 238.32121,127.1939 C 238.32121,129.9086 243.72086,126.51343 246.35451,125.85502"
       style="opacity:1;color:#000000;fill:none;fill-opacity:0.75;fill-rule:evenodd;stroke:#000000;stroke-width:1px;stroke-linecap:butt;stroke-linejoin:miter;marker:none;marker-start:none;marker-mid:none;marker-end:none;stroke-miterlimit:4;stroke-dasharray:none;stroke-dashoffset:0;stroke-opacity:1;visibility:visible;display:inline;overflow:visible"
       id="path2353" />
    <path
       d="M 287.19044,132.54943 C 287.19044,137.23553 296.56263,132.54943 301.24872,132.54943 C 314.4144,132.54943 327.58009,132.54943 340.74577,132.54943 C 344.42601,132.54943 333.32641,131.51752 330.03471,129.87167 C 326.87893,128.29378 338.49844,130.0631 340.07633,133.21888 C 341.53569,136.1376 332.66293,137.02064 331.37359,137.23553"
       style="opacity:1;color:#000000;fill:none;fill-opacity:0.75;fill-rule:evenodd;stroke:#000000;stroke-width:1px;stroke-linecap:butt;stroke-linejoin:miter;marker:none;marker-start:none;marker-mid:none;marker-end:none;stroke-miterlimit:4;stroke-dasharray:none;stroke-dashoffset:0;stroke-opacity:1;visibility:visible;display:inline;overflow:visible"
       id="path2355" />
    <path
       d="M 307.94313,110.45786 C 315.63457,125.84075 300.6545,113.1911 313.29867,108.44954 C 318.61958,106.45419 319.5558,108.85977 318.6542,112.46619 C 317.25742,118.05329 313.49478,108.26473 320.66252,117.82172"
       style="opacity:1;color:#000000;fill:none;fill-opacity:0.75;fill-rule:evenodd;stroke:#000000;stroke-width:1px;stroke-linecap:butt;stroke-linejoin:miter;marker:none;marker-start:none;marker-mid:none;marker-end:none;stroke-miterlimit:4;stroke-dasharray:none;stroke-dashoffset:0;stroke-opacity:1;visibility:visible;display:inline;overflow:visible"
       id="path2357" />
    <path
       d="M 330.70415,119.1606 C 330.38857,120.42291 331.41131,115.81339 332.71247,115.81339 C 333.18646,115.81339 330.49146,123.5301 328.02638,124.51614"
       style="opacity:1;color:#000000;fill:none;fill-opacity:0.75;fill-rule:evenodd;stroke:#000000;stroke-width:1px;stroke-linecap:butt;stroke-linejoin:miter;marker:none;marker-start:none;marker-mid:none;marker-end:none;stroke-miterlimit:4;stroke-dasharray:none;stroke-dashoffset:0;stroke-opacity:1;visibility:visible;display:inline;overflow:visible"
       id="path2359" />
    <path
       d="M 337.39856,119.83004 C 339.098,119.83004 337.75819,124.92831 339.40689,124.51614 C 341.05558,124.10396 338.46019,121.15708 337.39856,119.83004 z "
       style="opacity:1;color:#000000;fill:none;fill-opacity:0.75;fill-rule:evenodd;stroke:#000000;stroke-width:1px;stroke-linecap:butt;stroke-linejoin:miter;marker:none;marker-start:none;marker-mid:none;marker-end:none;stroke-miterlimit:4;stroke-dasharray:none;stroke-dashoffset:0;stroke-opacity:1;visibility:visible;display:inline;overflow:visible"
       id="path2361" />
    <path
       d="M 337.39856,118.49116 C 339.86687,117.87409 332.71247,121.97187 332.71247,124.51614 C 332.71247,129.1384 337.96351,125.29007 338.73745,124.51614 C 340.19219,123.06139 338.16263,120.40133 337.39856,118.49116 z "
       style="opacity:1;color:#000000;fill:none;fill-opacity:0.75;fill-rule:evenodd;stroke:#000000;stroke-width:1px;stroke-linecap:butt;stroke-linejoin:miter;marker:none;marker-start:none;marker-mid:none;marker-end:none;stroke-miterlimit:4;stroke-dasharray:none;stroke-dashoffset:0;stroke-opacity:1;visibility:visible;display:inline;overflow:visible"
       id="path2365" />
    <path
       d="M 329.36526,119.1606 C 331.06467,117.46119 323.01077,113.80507 332.04303,113.80507 C 332.74868,113.80507 332.48932,115.14395 332.71247,115.81339"
       style="opacity:1;color:#000000;fill:none;fill-opacity:0.75;fill-rule:evenodd;stroke:#000000;stroke-width:1px;stroke-linecap:butt;stroke-linejoin:miter;marker:none;marker-start:none;marker-mid:none;marker-end:none;stroke-miterlimit:4;stroke-dasharray:none;stroke-dashoffset:0;stroke-opacity:1;visibility:visible;display:inline;overflow:visible"
       id="path2367" />
    <path
       d="M 404.34272,133.21888 C 406.55177,133.21888 399.65663,135.69592 399.65663,137.90497 C 399.65663,140.58273 405.29486,139.1025 407.68993,137.90497 C 409.40686,137.0465 406.22503,133.59534 404.34272,133.21888 z "
       style="opacity:1;color:#000000;fill:none;fill-opacity:0.75;fill-rule:evenodd;stroke:#000000;stroke-width:1px;stroke-linecap:butt;stroke-linejoin:miter;marker:none;marker-start:none;marker-mid:none;marker-end:none;stroke-miterlimit:4;stroke-dasharray:none;stroke-dashoffset:0;stroke-opacity:1;visibility:visible;display:inline;overflow:visible"
       id="path2369" />
    <path
       d="M 415.05379,99.746797 C 418.25344,98.14697 407.92004,100.41624 404.34272,100.41624 C 397.57746,100.41624 397.56928,98.079402 394.3011,93.721822 C 391.46567,89.941256 397.2524,87.560082 398.31775,87.027406 C 401.48145,85.445553 407.37847,86.357965 411.03714,86.357965 C 413.16858,86.357965 415.48545,85.688523 417.73155,85.688523"
       style="opacity:1;color:#000000;fill:none;fill-opacity:0.75;fill-rule:evenodd;stroke:#000000;stroke-width:1px;stroke-linecap:butt;stroke-linejoin:miter;marker:none;marker-start:none;marker-mid:none;marker-end:none;stroke-miterlimit:4;stroke-dasharray:none;stroke-dashoffset:0;stroke-opacity:1;visibility:visible;display:inline;overflow:visible"
       id="path2371" />
    <path
       d="M 405.01216,86.357965 C 405.81247,86.357965 405.6816,94.417843 405.6816,97.06903 C 405.6816,97.961619 405.6816,98.854208 405.6816,99.746797"
       style="opacity:1;color:#000000;fill:none;fill-opacity:0.75;fill-rule:evenodd;stroke:#000000;stroke-width:1px;stroke-linecap:butt;stroke-linejoin:miter;marker:none;marker-start:none;marker-mid:none;marker-end:none;stroke-miterlimit:4;stroke-dasharray:none;stroke-dashoffset:0;stroke-opacity:1;visibility:visible;display:inline;overflow:visible"
       id="path2373" />
    <path
       d="M 433.12871,133.88832 C 433.12871,138.80263 442.94212,133.21888 447.85643,133.21888 C 458.56749,133.21888 469.27856,133.21888 479.98962,133.21888 C 490.0057,133.21888 467.51484,121.96068 477.9813,127.1939 C 485.97848,131.19249 480.21861,134.32877 475.97297,138.57441"
       style="opacity:1;color:#000000;fill:none;fill-opacity:0.75;fill-rule:evenodd;stroke:#000000;stroke-width:1px;stroke-linecap:butt;stroke-linejoin:miter;marker:none;marker-start:none;marker-mid:none;marker-end:none;stroke-miterlimit:4;stroke-dasharray:none;stroke-dashoffset:0;stroke-opacity:1;visibility:visible;display:inline;overflow:visible"
       id="path2375" />
    <path
       d="M 456.55917,99.746797 C 456.36595,99.940014 456.55917,106.00459 456.55917,108.44954"
       style="opacity:1;color:#000000;fill:none;fill-opacity:0.75;fill-rule:evenodd;stroke:#000000;stroke-width:1px;stroke-linecap:butt;stroke-linejoin:miter;marker:none;marker-start:none;marker-mid:none;marker-end:none;stroke-miterlimit:4;stroke-dasharray:none;stroke-dashoffset:0;stroke-opacity:1;visibility:visible;display:inline;overflow:visible"
       id="path2377" />
    <path
       d="M 448.52587,100.41624 C 444.25389,104.68821 460.73969,100.54263 466.60079,99.077355"
       style="opacity:1;color:#000000;fill:none;fill-opacity:0.75;fill-rule:evenodd;stroke:#000000;stroke-width:1px;stroke-linecap:butt;stroke-linejoin:miter;marker:none;marker-start:none;marker-mid:none;marker-end:none;stroke-miterlimit:4;stroke-dasharray:none;stroke-dashoffset:0;stroke-opacity:1;visibility:visible;display:inline;overflow:visible"
       id="path2379" />
    <path
       d="M 465.26191,108.44954 C 463.98977,109.72167 471.05378,107.37362 470.61744,109.11898 C 469.73806,112.6365 467.83047,114.02349 466.60079,116.48284"
       style="opacity:1;color:#000000;fill:none;fill-opacity:0.75;fill-rule:evenodd;stroke:#000000;stroke-width:1px;stroke-linecap:butt;stroke-linejoin:miter;marker:none;marker-start:none;marker-mid:none;marker-end:none;stroke-miterlimit:4;stroke-dasharray:none;stroke-dashoffset:0;stroke-opacity:1;visibility:visible;display:inline;overflow:visible"
       id="path2381" />
    <path
       d="M 447.18698,101.08568 C 447.01158,101.78728 457.98191,99.32836 459.23693,99.077355 C 461.66875,98.590993 464.15328,98.35035 466.60079,97.738472"
       style="opacity:1;color:#000000;fill:none;fill-opacity:0.75;fill-rule:evenodd;stroke:#000000;stroke-width:1px;stroke-linecap:butt;stroke-linejoin:miter;marker:none;marker-start:none;marker-mid:none;marker-end:none;stroke-miterlimit:4;stroke-dasharray:none;stroke-dashoffset:0;stroke-opacity:1;visibility:visible;display:inline;overflow:visible"
       id="path2383" />
    <path
       d="M 463.92302,104.43289 C 467.00803,103.81589 466.28205,114.4532 471.28688,107.7801 C 472.22214,106.53308 472.71322,105.87831 473.29521,105.10233"
       style="opacity:1;color:#000000;fill:none;fill-opacity:0.75;fill-rule:evenodd;stroke:#000000;stroke-width:1px;stroke-linecap:butt;stroke-linejoin:miter;marker:none;marker-start:none;marker-mid:none;marker-end:none;stroke-miterlimit:4;stroke-dasharray:none;stroke-dashoffset:0;stroke-opacity:1;visibility:visible;display:inline;overflow:visible"
       id="path2385" />
    <path
       d="M 531.53662,138.57441 C 531.55347,138.55195 524.61022,141.4709 530.86718,144.59938 C 534.6644,146.49799 535.55327,140.58766 535.55327,137.90497 C 535.55327,135.14 531.93785,138.33367 531.53662,138.57441 z "
       style="opacity:1;color:#000000;fill:none;fill-opacity:0.75;fill-rule:evenodd;stroke:#000000;stroke-width:1px;stroke-linecap:butt;stroke-linejoin:miter;marker:none;marker-start:none;marker-mid:none;marker-end:none;stroke-miterlimit:4;stroke-dasharray:none;stroke-dashoffset:0;stroke-opacity:1;visibility:visible;display:inline;overflow:visible"
       id="path2387" />
    <path
       d="M 539.56992,66.274717 C 539.56992,61.240287 529.1592,65.517702 524.84221,62.927509 C 520.4777,60.308807 521.93492,56.013132 525.51165,54.224768 C 527.40998,53.275602 532.21971,52.715115 534.21439,52.216444 C 536.27549,51.701169 538.23982,52.046888 540.23937,51.547002"
       style="opacity:1;color:#000000;fill:none;fill-opacity:0.75;fill-rule:evenodd;stroke:#000000;stroke-width:1px;stroke-linecap:butt;stroke-linejoin:miter;marker:none;marker-start:none;marker-mid:none;marker-end:none;stroke-miterlimit:4;stroke-dasharray:none;stroke-dashoffset:0;stroke-opacity:1;visibility:visible;display:inline;overflow:visible"
       id="path2389" />
    <path
       d="M 531.53662,52.885885 C 534.56741,52.128189 531.53662,59.134007 531.53662,62.258068"
       style="opacity:1;color:#000000;fill:none;fill-opacity:0.75;fill-rule:evenodd;stroke:#000000;stroke-width:1px;stroke-linecap:butt;stroke-linejoin:miter;marker:none;marker-start:none;marker-mid:none;marker-end:none;stroke-miterlimit:4;stroke-dasharray:none;stroke-dashoffset:0;stroke-opacity:1;visibility:visible;display:inline;overflow:visible"
       id="path2391" />
    <path
       d="M 129.87167,234.974 C 135.5976,233.54252 149.48299,209.84984 155.97989,205.51857 C 156.55599,205.1345 156.64933,223.83994 156.64933,238.99065 C 156.64933,240.10638 156.64933,241.22212 156.64933,242.33786"
       style="opacity:1;color:#000000;fill:none;fill-opacity:0.75;fill-rule:evenodd;stroke:#000000;stroke-width:1px;stroke-linecap:butt;stroke-linejoin:miter;marker:none;marker-start:none;marker-mid:none;marker-end:none;stroke-miterlimit:4;stroke-dasharray:none;stroke-dashoffset:0;stroke-opacity:1;visibility:visible;display:inline;overflow:visible"
       id="path2393" />
    <path
       d="M 143.2605,224.93237 C 143.2605,228.5097 150.39424,225.60182 153.97157,225.60182 C 154.64101,225.60182 155.31045,225.60182 155.97989,225.60182"
       style="opacity:1;color:#000000;fill:none;fill-opacity:0.75;fill-rule:evenodd;stroke:#000000;stroke-width:1px;stroke-linecap:butt;stroke-linejoin:miter;marker:none;marker-start:none;marker-mid:none;marker-end:none;stroke-miterlimit:4;stroke-dasharray:none;stroke-dashoffset:0;stroke-opacity:1;visibility:visible;display:inline;overflow:visible"
       id="path2395" />
    <path
       d="M 216.89908,216.22963 C 217.62921,216.22963 198.86559,222.56861 184.76588,229.61847 C 182.80016,230.60133 180.74923,231.40364 178.74091,232.29623 C 174.82198,234.03798 190.7158,232.96567 194.13806,232.96567"
       style="opacity:1;color:#000000;fill:none;fill-opacity:0.75;fill-rule:evenodd;stroke:#000000;stroke-width:1px;stroke-linecap:butt;stroke-linejoin:miter;marker:none;marker-start:none;marker-mid:none;marker-end:none;stroke-miterlimit:4;stroke-dasharray:none;stroke-dashoffset:0;stroke-opacity:1;visibility:visible;display:inline;overflow:visible"
       id="path2397" />
    <path
       d="M 199.49359,234.30456 C 194.19967,236.65741 210.73369,237.15867 216.22963,238.99065 C 221.31846,240.68692 221.92774,239.39766 225.60182,239.66009"
       style="opacity:1;color:#000000;fill:none;fill-opacity:0.75;fill-rule:evenodd;stroke:#000000;stroke-width:1px;stroke-linecap:butt;stroke-linejoin:miter;marker:none;marker-start:none;marker-mid:none;marker-end:none;stroke-miterlimit:4;stroke-dasharray:none;stroke-dashoffset:0;stroke-opacity:1;visibility:visible;display:inline;overflow:visible"
       id="path2399" />
    <path
       d="M 200.16304,223.59349 C 200.32444,223.64729 200.16304,231.58997 200.16304,234.30456"
       style="opacity:1;color:#000000;fill:none;fill-opacity:0.75;fill-rule:evenodd;stroke:#000000;stroke-width:1px;stroke-linecap:butt;stroke-linejoin:miter;marker:none;marker-start:none;marker-mid:none;marker-end:none;stroke-miterlimit:4;stroke-dasharray:none;stroke-dashoffset:0;stroke-opacity:1;visibility:visible;display:inline;overflow:visible"
       id="path2401" />
    <path
       d="M 249.70171,219.57684 C 252.1164,220.38174 250.66506,236.14963 251.71004,240.32953 C 252.49343,243.46311 262.97608,218.40966 265.76831,214.22131 C 266.04509,213.80614 266.21461,213.32872 266.43775,212.88243"
       style="opacity:1;color:#000000;fill:none;fill-opacity:0.75;fill-rule:evenodd;stroke:#000000;stroke-width:1px;stroke-linecap:butt;stroke-linejoin:miter;marker:none;marker-start:none;marker-mid:none;marker-end:none;stroke-miterlimit:4;stroke-dasharray:none;stroke-dashoffset:0;stroke-opacity:1;visibility:visible;display:inline;overflow:visible"
       id="path2403" />
    <path
       d="M 251.71004,228.27958 C 252.95401,226.41363 256.22881,228.15405 258.40445,227.61014"
       style="opacity:1;color:#000000;fill:none;fill-opacity:0.75;fill-rule:evenodd;stroke:#000000;stroke-width:1px;stroke-linecap:butt;stroke-linejoin:miter;marker:none;marker-start:none;marker-mid:none;marker-end:none;stroke-miterlimit:4;stroke-dasharray:none;stroke-dashoffset:0;stroke-opacity:1;visibility:visible;display:inline;overflow:visible"
       id="path2405" />
    <path
       d="M 303.25704,219.57684 C 303.3724,219.40381 340.18638,234.61635 342.7541,235.64344 C 343.60835,235.98514 344.53927,236.08973 345.43186,236.31288 C 349.99861,237.45457 336.04453,237.0679 331.37359,237.65176 C 321.57891,238.8761 311.11532,239.66009 301.24872,239.66009"
       style="opacity:1;color:#000000;fill:none;fill-opacity:0.75;fill-rule:evenodd;stroke:#000000;stroke-width:1px;stroke-linecap:butt;stroke-linejoin:miter;marker:none;marker-start:none;marker-mid:none;marker-end:none;stroke-miterlimit:4;stroke-dasharray:none;stroke-dashoffset:0;stroke-opacity:1;visibility:visible;display:inline;overflow:visible"
       id="path2407" />
    <path
       d="M 312.62922,227.61014 C 309.52139,227.99862 313.29867,233.8503 313.29867,236.98232"
       style="opacity:1;color:#000000;fill:none;fill-opacity:0.75;fill-rule:evenodd;stroke:#000000;stroke-width:1px;stroke-linecap:butt;stroke-linejoin:miter;marker:none;marker-start:none;marker-mid:none;marker-end:none;stroke-miterlimit:4;stroke-dasharray:none;stroke-dashoffset:0;stroke-opacity:1;visibility:visible;display:inline;overflow:visible"
       id="path2409" />
    <path
       d="M 149.28548,262.4211 C 143.28704,263.17091 137.71293,264.86017 133.21888,267.10719 C 125.081,271.17614 142.87624,275.41324 146.60771,276.47938"
       style="opacity:1;color:#000000;fill:none;fill-opacity:0.75;fill-rule:evenodd;stroke:#000000;stroke-width:1px;stroke-linecap:butt;stroke-linejoin:miter;marker:none;marker-start:none;marker-mid:none;marker-end:none;stroke-miterlimit:4;stroke-dasharray:none;stroke-dashoffset:0;stroke-opacity:1;visibility:visible;display:inline;overflow:visible"
       id="path2411" />
    <path
       d="M 141.92162,263.75999 C 141.688,263.8768 141.92162,271.81252 141.92162,274.47105"
       style="opacity:1;color:#000000;fill:none;fill-opacity:0.75;fill-rule:evenodd;stroke:#000000;stroke-width:1px;stroke-linecap:butt;stroke-linejoin:miter;marker:none;marker-start:none;marker-mid:none;marker-end:none;stroke-miterlimit:4;stroke-dasharray:none;stroke-dashoffset:0;stroke-opacity:1;visibility:visible;display:inline;overflow:visible"
       id="path2413" />
    <path
       d="M 195.47694,266.43775 C 195.06192,266.64526 200.16304,292.81467 200.16304,285.18212 C 200.16304,277.58355 203.61479,268.61359 206.18801,261.75166"
       style="opacity:1;color:#000000;fill:none;fill-opacity:0.75;fill-rule:evenodd;stroke:#000000;stroke-width:1px;stroke-linecap:butt;stroke-linejoin:miter;marker:none;marker-start:none;marker-mid:none;marker-end:none;stroke-miterlimit:4;stroke-dasharray:none;stroke-dashoffset:0;stroke-opacity:1;visibility:visible;display:inline;overflow:visible"
       id="path2415" />
    <path
       d="M 196.81583,273.13217 C 196.81583,271.57014 199.93989,273.13217 201.50192,273.13217"
       style="opacity:1;color:#000000;fill:none;fill-opacity:0.75;fill-rule:evenodd;stroke:#000000;stroke-width:1px;stroke-linecap:butt;stroke-linejoin:miter;marker:none;marker-start:none;marker-mid:none;marker-end:none;stroke-miterlimit:4;stroke-dasharray:none;stroke-dashoffset:0;stroke-opacity:1;visibility:visible;display:inline;overflow:visible"
       id="path2417" />
    <path
       d="M 243.67674,267.10719 C 243.67674,266.1628 265.19756,274.37237 259.0739,280.49603 C 255.01011,284.55981 246.80596,286.5755 241.66841,287.85988"
       style="opacity:1;color:#000000;fill:none;fill-opacity:0.75;fill-rule:evenodd;stroke:#000000;stroke-width:1px;stroke-linecap:butt;stroke-linejoin:miter;marker:none;marker-start:none;marker-mid:none;marker-end:none;stroke-miterlimit:4;stroke-dasharray:none;stroke-dashoffset:0;stroke-opacity:1;visibility:visible;display:inline;overflow:visible"
       id="path2419" />
    <path
       d="M 250.37116,273.13217 C 247.05383,276.44949 251.0406,282.49904 251.0406,287.19044"
       style="opacity:1;color:#000000;fill:none;fill-opacity:0.75;fill-rule:evenodd;stroke:#000000;stroke-width:1px;stroke-linecap:butt;stroke-linejoin:miter;marker:none;marker-start:none;marker-mid:none;marker-end:none;stroke-miterlimit:4;stroke-dasharray:none;stroke-dashoffset:0;stroke-opacity:1;visibility:visible;display:inline;overflow:visible"
       id="path2421" />
    <path
       d="M 307.27369,287.19044 C 309.2973,282.13143 317.21324,273.23425 318.6542,271.79329 C 315.85817,274.58932 322.00141,279.21962 322.00141,283.17379 C 322.00141,284.53114 322.4477,285.85156 322.67085,287.19044"
       style="opacity:1;color:#000000;fill:none;fill-opacity:0.75;fill-rule:evenodd;stroke:#000000;stroke-width:1px;stroke-linecap:butt;stroke-linejoin:miter;marker:none;marker-start:none;marker-mid:none;marker-end:none;stroke-miterlimit:4;stroke-dasharray:none;stroke-dashoffset:0;stroke-opacity:1;visibility:visible;display:inline;overflow:visible"
       id="path2423" />
    <path
       d="M 311.29034,281.16547 C 311.29034,284.51268 317.98476,281.16547 321.33196,281.16547"
       style="opacity:1;color:#000000;fill:none;fill-opacity:0.75;fill-rule:evenodd;stroke:#000000;stroke-width:1px;stroke-linecap:butt;stroke-linejoin:miter;marker:none;marker-start:none;marker-mid:none;marker-end:none;stroke-miterlimit:4;stroke-dasharray:none;stroke-dashoffset:0;stroke-opacity:1;visibility:visible;display:inline;overflow:visible"
       id="path2425" />
    <text
       x="135.89664"
       y="190.12141"
       style="font-size:12px;font-style:normal;font-weight:normal;fill:#000000;fill-opacity:1;stroke:none;stroke-width:1px;stroke-linecap:butt;stroke-linejoin:miter;stroke-opacity:1;font-family:Bitstream Vera Sans"
       id="text2427"
       xml:space="preserve"><tspan
         x="135.89664"
         y="190.12141"
         id="tspan2429">1, (0,0,0)</tspan></text>
    <text
       x="230.95735"
       y="185.43532"
       style="font-size:12px;font-style:normal;font-weight:normal;fill:#000000;fill-opacity:1;stroke:none;stroke-width:1px;stroke-linecap:butt;stroke-linejoin:miter;stroke-opacity:1;font-family:Bitstream Vera Sans"
       id="text2431"
       xml:space="preserve"><tspan
         x="230.95735"
         y="185.43532"
         id="tspan2433">1,(1,1,0)</tspan></text>
    <text
       x="125.85502"
       y="309.28201"
       style="font-size:12px;font-style:normal;font-weight:normal;fill:#000000;fill-opacity:1;stroke:none;stroke-width:1px;stroke-linecap:butt;stroke-linejoin:miter;stroke-opacity:1;font-family:Bitstream Vera Sans"
       id="text2435"
       xml:space="preserve"><tspan
         x="125.85502"
         y="309.28201"
         id="tspan2437">1, (1,0,1)</tspan></text>
    <path
       d="M 224.26293,194.13806 C 224.44707,198.34617 213.54047,204.17969 210.8741,204.17969 C 210.31174,204.17969 207.65403,200.29017 211.54354,204.17969 C 212.57426,205.2104 220.42071,204.17969 222.25461,204.17969"
       style="opacity:1;color:#000000;fill:none;fill-opacity:0.75;fill-rule:evenodd;stroke:#000000;stroke-width:1px;stroke-linecap:butt;stroke-linejoin:miter;marker:none;marker-start:none;marker-mid:none;marker-end:none;stroke-miterlimit:4;stroke-dasharray:none;stroke-dashoffset:0;stroke-opacity:1;visibility:visible;display:inline;overflow:visible"
       id="path2439" />
    <path
       d="M 123.84669,295.89318 C 124.03565,296.08214 119.26761,288.33521 126.52446,286.521 C 126.58019,286.50707 124.80326,283.93842 125.85502,281.83491 C 128.2637,277.01756 130.20124,286.54159 129.87167,287.85988 C 129.53521,289.20573 128.30812,286.81752 127.86334,286.521"
       style="opacity:1;color:#000000;fill:none;fill-opacity:0.75;fill-rule:evenodd;stroke:#000000;stroke-width:1px;stroke-linecap:butt;stroke-linejoin:miter;marker:none;marker-start:none;marker-mid:none;marker-end:none;stroke-miterlimit:4;stroke-dasharray:none;stroke-dashoffset:0;stroke-opacity:1;visibility:visible;display:inline;overflow:visible"
       id="path2441" />
  </g>
</svg>
